<svg width="24" height="24" viewBox="0 0 24 24" fill="none" xmlns="http://www.w3.org/2000/svg">
  <mask id="mask0_53_7" style="mask-type:alpha" maskUnits="userSpaceOnUse" x="0" y="0" width="24" height="24">
    <rect width="24" height="24" fill="#D9D9D9"/>
  </mask>
  <g mask="url(#mask0_53_7)">
    <path d="M1.99998 22.05C1.74998 22.05 1.52498 21.9833 1.32498 21.85C1.12498 21.7167 0.966645 21.5583 0.849978 21.375C0.733312 21.1917 0.670812 20.9833 0.662478 20.75C0.654145 20.5167 0.716645 20.2833 0.849978 20.05L10.85 2.825C10.9833 2.59167 11.15 2.425 11.35 2.325C11.55 2.225 11.7666 2.175 12 2.175C12.2333 2.175 12.45 2.225 12.65 2.325C12.85 2.425 13.0166 2.59167 13.15 2.825L23.15 20.05C23.2833 20.2833 23.3458 20.5167 23.3375 20.75C23.3291 20.9833 23.2666 21.1917 23.15 21.375C23.0333 21.5583 22.875 21.7167 22.675 21.85C22.475 21.9833 22.25 22.05 22 22.05H1.99998ZM12.025 18.675C12.3916 18.675 12.7041 18.5458 12.9625 18.2875C13.2208 18.0292 13.35 17.7167 13.35 17.35C13.35 16.9833 13.2208 16.6708 12.9625 16.4125C12.7041 16.1542 12.3916 16.025 12.025 16.025C11.6583 16.025 11.3458 16.1542 11.0875 16.4125C10.8291 16.6708 10.7 16.9833 10.7 17.35C10.7 17.7167 10.8291 18.0292 11.0875 18.2875C11.3458 18.5458 11.6583 18.675 12.025 18.675ZM12.025 15.1C12.3916 15.1 12.7041 14.9708 12.9625 14.7125C13.2208 14.4542 13.35 14.1417 13.35 13.775V11.325C13.35 10.9583 13.2208 10.6458 12.9625 10.3875C12.7041 10.1292 12.3916 10 12.025 10C11.6583 10 11.3458 10.1292 11.0875 10.3875C10.8291 10.6458 10.7 10.9583 10.7 11.325V13.775C10.7 14.1417 10.8291 14.4542 11.0875 14.7125C11.3458 14.9708 11.6583 15.1 12.025 15.1Z" fill="#28161C"/>
  </g>
</svg>