<svg width="22" height="22" viewBox="0 0 22 22" fill="none" xmlns="http://www.w3.org/2000/svg">
  <path d="M12.3559 14.9313L12.3559 14.1813H12.3559L12.3559 14.9313ZM4.92491 14.9313L4.38449 14.4112C4.10254 14.7042 4.10543 15.1685 4.39101 15.458L4.92491 14.9313ZM15.6749 7.13467C15.6749 6.72046 15.3391 6.38467 14.9249 6.38467C14.5107 6.38467 14.1749 6.72046 14.1749 7.13467H15.6749ZM14.9249 12.2288H15.6749H14.9249ZM8.06585 12.7488C8.35306 12.4504 8.34393 11.9756 8.04546 11.6884C7.74699 11.4012 7.27221 11.4103 6.985 11.7088L8.06585 12.7488ZM7.03389 18.1369C7.3248 18.4318 7.79966 18.435 8.09453 18.1441C8.38939 17.8532 8.39261 17.3783 8.1017 17.0834L7.03389 18.1369ZM20.25 3.54237V18.7966H21.75V3.54237H20.25ZM9.63136 8.20339V3.22458H8.13136V8.20339H9.63136ZM9.63136 3.22458C9.63136 2.40263 10.2562 1.75 11.1695 1.75V0.25C9.4557 0.25 8.13136 1.54652 8.13136 3.22458H9.63136ZM1.75 11C1.75 10.4772 1.95323 10.1713 2.22303 9.97278C2.52267 9.75236 2.95765 9.63136 3.41525 9.63136V8.13136C2.72879 8.13136 1.95614 8.30697 1.33418 8.7645C0.682361 9.244 0.25 9.99739 0.25 11H1.75ZM3.20339 20.25C2.71716 20.25 2.36892 20.0369 2.1251 19.74C1.86368 19.4218 1.75 19.0372 1.75 18.7966H0.25C0.25 19.4034 0.496494 20.1206 0.966006 20.6922C1.45312 21.2852 2.20657 21.75 3.20339 21.75V20.25ZM1.75 18.7966V11H0.25V18.7966H1.75ZM20.25 18.7966C20.25 19.2068 20.0599 19.5693 19.7672 19.8433C19.4589 20.1318 19.1151 20.25 18.9237 20.25V21.75C19.5798 21.75 20.2742 21.4233 20.7922 20.9385C21.3257 20.4391 21.75 19.7 21.75 18.7966H20.25ZM18.9237 20.25H3.20339V21.75H18.9237V20.25ZM3.41525 9.63136H8.52119V8.13136H3.41525V9.63136ZM8.52119 9.63136C8.61223 9.63136 8.78807 9.63289 8.95017 9.59163C9.04688 9.56701 9.17825 9.51866 9.30442 9.41586C9.43738 9.30752 9.52034 9.17494 9.56865 9.04857C9.64489 8.84918 9.63836 8.64047 9.6376 8.56948C9.63612 8.43016 9.63136 8.37218 9.63136 8.20339H8.13136C8.13136 8.29119 8.13282 8.3679 8.13433 8.43252C8.13594 8.50122 8.13726 8.54512 8.13769 8.58544C8.13812 8.62571 8.13716 8.63655 8.13741 8.63356C8.13748 8.63274 8.14095 8.5825 8.16758 8.51287C8.19868 8.43153 8.25747 8.33403 8.35691 8.25301C8.44956 8.17751 8.53807 8.14869 8.58015 8.13798C8.61892 8.12811 8.63918 8.12847 8.61977 8.12962C8.60283 8.13063 8.5739 8.13136 8.52119 8.13136V9.63136ZM11.1695 1.75H18.7966V0.25H11.1695V1.75ZM18.7966 1.75C19.0428 1.75 19.412 1.85594 19.7129 2.12819C19.992 2.38069 20.25 2.81011 20.25 3.54237H21.75C21.75 2.41023 21.33 1.56846 20.7193 1.01588C20.1304 0.483046 19.3979 0.25 18.7966 0.25V1.75ZM12.3559 14.1813L4.92491 14.1813L4.92492 15.6813L12.3559 15.6813L12.3559 14.1813ZM14.1749 7.13467V12.2288H15.6749V7.13467H14.1749ZM14.1749 12.2288C14.1749 13.3317 13.3068 14.1813 12.3559 14.1813L12.3559 15.6813C14.2017 15.6813 15.6749 14.092 15.6749 12.2288H14.1749ZM5.46534 15.4513L8.06585 12.7488L6.985 11.7088L4.38449 14.4112L5.46534 15.4513ZM4.39101 15.458L7.03389 18.1369L8.1017 17.0834L5.45882 14.4046L4.39101 15.458Z" fill="white"/>
</svg>