<svg width="24" height="13" viewBox="0 0 24 13" fill="none" xmlns="http://www.w3.org/2000/svg">
  <path d="M8.82143 12.2224L0.72205 7.04745C0.40735 6.84745 0.25 6.56412 0.25 6.19745C0.25 5.83078 0.40735 5.54745 0.72205 5.34745L8.82143 0.172449C9.15269 -0.0442177 9.4881 -0.0567177 9.82764 0.134949C10.1672 0.326616 10.337 0.622449 10.337 1.02245V5.19745H22.2562C22.5378 5.19745 22.7738 5.29328 22.9643 5.48495C23.1548 5.67662 23.25 5.91412 23.25 6.19745C23.25 6.48078 23.1548 6.71828 22.9643 6.90995C22.7738 7.10162 22.5378 7.19745 22.2562 7.19745H10.337V11.3724C10.337 11.7724 10.1672 12.0683 9.82764 12.2599C9.4881 12.4516 9.15269 12.4391 8.82143 12.2224Z" fill="#BF2D32"/>
</svg>