<svg width="25" height="24" viewBox="0 0 25 24" fill="none" xmlns="http://www.w3.org/2000/svg">
  <mask id="mask0_82_75" style="mask-type:alpha" maskUnits="userSpaceOnUse" x="0" y="0" width="25" height="24">
    <rect x="0.5" width="24" height="24" fill="#D9D9D9"/>
  </mask>
  <g mask="url(#mask0_82_75)">
    <path d="M3.35001 16.3C2.64335 16.3 2.02501 16.035 1.49501 15.505C0.965012 14.975 0.700012 14.3567 0.700012 13.65V11.4891C0.700012 11.363 0.716679 11.2246 0.750012 11.0739C0.783346 10.9232 0.833346 10.7819 0.900012 10.65L4.10001 3.1C4.28335 2.73333 4.56078 2.425 4.93231 2.175C5.30386 1.925 5.6931 1.8 6.10001 1.8H14.5C15.25 1.8 15.8792 2.05417 16.3875 2.5625C16.8958 3.07083 17.15 3.7 17.15 4.45V15.2C17.15 15.5556 17.0833 15.8944 16.95 16.2167C16.8167 16.5389 16.625 16.825 16.375 17.075L11.5 22.025C11.1 22.4417 10.6333 22.7 10.1 22.8C9.56668 22.9 9.07501 22.8333 8.62501 22.6C8.17501 22.3667 7.86251 22 7.68751 21.5C7.51251 21 7.50001 20.4667 7.65001 19.9L8.65001 16.3H3.35001ZM21.2562 1.8C21.8354 1.8 22.3292 2.00562 22.7375 2.41687C23.1458 2.82812 23.35 3.3225 23.35 3.9V14.2C23.35 14.7775 23.1438 15.2719 22.7313 15.6831C22.3188 16.0944 21.823 16.3 21.2438 16.3C20.6646 16.3 20.1708 16.0944 19.7625 15.6831C19.3542 15.2719 19.15 14.7775 19.15 14.2V3.9C19.15 3.3225 19.3562 2.82812 19.7687 2.41687C20.1812 2.00562 20.677 1.8 21.2562 1.8Z" fill="#28161C"/>
  </g>
</svg>