<svg width="25" height="24" viewBox="0 0 25 24" fill="none" xmlns="http://www.w3.org/2000/svg">
  <mask id="mask0_82_83" style="mask-type:alpha" maskUnits="userSpaceOnUse" x="0" y="0" width="25" height="24">
    <rect x="0.5" width="24" height="24" fill="#D9D9D9"/>
  </mask>
  <g mask="url(#mask0_82_83)">
    <path d="M21.65 7.7C22.3567 7.7 22.975 7.965 23.505 8.495C24.035 9.025 24.3 9.64333 24.3 10.35V12.5109C24.3 12.637 24.2834 12.7754 24.25 12.9261C24.2167 13.0768 24.1667 13.2181 24.1 13.35L20.9 20.9C20.7167 21.2667 20.4393 21.575 20.0677 21.825C19.6962 22.075 19.3069 22.2 18.9 22.2H10.5C9.75002 22.2 9.12086 21.9458 8.61252 21.4375C8.10419 20.9292 7.85002 20.3 7.85002 19.55V8.8C7.85002 8.44445 7.91669 8.10556 8.05002 7.78332C8.18336 7.46111 8.37502 7.175 8.62502 6.925L13.5 1.975C13.9 1.55833 14.3667 1.3 14.9 1.2C15.4334 1.1 15.925 1.16667 16.375 1.4C16.825 1.63333 17.1375 2 17.3125 2.5C17.4875 3 17.5 3.53333 17.35 4.1L16.35 7.7H21.65ZM3.74382 22.2C3.16462 22.2 2.67086 21.9944 2.26252 21.5831C1.85419 21.1719 1.65002 20.6775 1.65002 20.1V9.8C1.65002 9.2225 1.85626 8.72812 2.26872 8.31687C2.68119 7.90562 3.17702 7.7 3.75622 7.7C4.33542 7.7 4.82919 7.90562 5.23752 8.31687C5.64586 8.72812 5.85002 9.2225 5.85002 9.8V20.1C5.85002 20.6775 5.64379 21.1719 5.23132 21.5831C4.81886 21.9944 4.32302 22.2 3.74382 22.2Z" fill="#28161C"/>
  </g>
</svg>