<svg width="25" height="24" viewBox="0 0 25 24" fill="none" xmlns="http://www.w3.org/2000/svg">
  <mask id="mask0_17_250" style="mask-type:alpha" maskUnits="userSpaceOnUse" x="0" y="0" width="25" height="24">
    <rect x="0.25" width="24" height="24" fill="#D9D9D9"/>
  </mask>
  <g mask="url(#mask0_17_250)">
    <path d="M18.25 11H16.25C15.9667 11 15.7292 10.9042 15.5375 10.7125C15.3458 10.5208 15.25 10.2833 15.25 10C15.25 9.71667 15.3458 9.47917 15.5375 9.2875C15.7292 9.09583 15.9667 9 16.25 9H18.25V7C18.25 6.71667 18.3458 6.47917 18.5375 6.2875C18.7292 6.09583 18.9667 6 19.25 6C19.5333 6 19.7708 6.09583 19.9625 6.2875C20.1542 6.47917 20.25 6.71667 20.25 7V9H22.25C22.5333 9 22.7708 9.09583 22.9625 9.2875C23.1542 9.47917 23.25 9.71667 23.25 10C23.25 10.2833 23.1542 10.5208 22.9625 10.7125C22.7708 10.9042 22.5333 11 22.25 11H20.25V13C20.25 13.2833 20.1542 13.5208 19.9625 13.7125C19.7708 13.9042 19.5333 14 19.25 14C18.9667 14 18.7292 13.9042 18.5375 13.7125C18.3458 13.5208 18.25 13.2833 18.25 13V11ZM9.25 12C8.15 12 7.20833 11.6083 6.425 10.825C5.64167 10.0417 5.25 9.1 5.25 8C5.25 6.9 5.64167 5.95833 6.425 5.175C7.20833 4.39167 8.15 4 9.25 4C10.35 4 11.2917 4.39167 12.075 5.175C12.8583 5.95833 13.25 6.9 13.25 8C13.25 9.1 12.8583 10.0417 12.075 10.825C11.2917 11.6083 10.35 12 9.25 12ZM1.25 18V17.2C1.25 16.6333 1.39583 16.1125 1.6875 15.6375C1.97917 15.1625 2.36667 14.8 2.85 14.55C3.88333 14.0333 4.93333 13.6458 6 13.3875C7.06667 13.1292 8.15 13 9.25 13C10.35 13 11.4333 13.1292 12.5 13.3875C13.5667 13.6458 14.6167 14.0333 15.65 14.55C16.1333 14.8 16.5208 15.1625 16.8125 15.6375C17.1042 16.1125 17.25 16.6333 17.25 17.2V18C17.25 18.55 17.0542 19.0208 16.6625 19.4125C16.2708 19.8042 15.8 20 15.25 20H3.25C2.7 20 2.22917 19.8042 1.8375 19.4125C1.44583 19.0208 1.25 18.55 1.25 18Z" fill="white"/>
  </g>
</svg>